<svg xmlns="http://www.w3.org/2000/svg" width="200" height="200" viewBox="0 0 100 100"><path fill="#fff" d="M0 0h100v100H0z"/><svg width="100" height="100" viewBox="0 0 1085.89 854.211" font-family="sans-serif" stroke="#000" stroke-width="2" stroke-linecap="round"><path d="m97.2 280-18.1-20.1M52.7 265.6l26.4-5.7M75.4 83.7l26.4-5.7M110.1 52.4 101.8 78M276.8 324.165l-25.383 9.485-1.664-7.825zM515.642 485.887l-4.477 26.724-7.608-2.472zM652.7 681.6l-20 34.7M652.7 681.6l-20-34.6M632.7 716.3l20 34.6M652.684 612.34l-16.536 36.641-6.928-4zM944.6 524.1l32.4 23.5M908.082 540.326l34.915-19.923 3.254 7.308zM977 547.6l36.5-16.3M652.7 750.9l-13.5 23.4M91.5 221.9l-12.4 38M130.612 213.578l-38.294 12.23-1.663-7.826zM369.456 375.3l-8.557 39.279-7.608-2.473zM357.1 413.3l-39.1 8.4M422.986 434.752l-38.294 12.229-1.663-7.825zM383.9 443.1l-12.4 38M916.4 460.8 879.9 477M916.4 460.8l21.9 15.8M223.3 264.7 196.5 235M223.3 264.7l26.4-5.6M692.7 681.6l20-34.6M692.7 681.6l13.5 23.4M128.569 107.768 98.83 80.718l5.945-5.352zM276.8 324.2l12.4-38.1M276.8 324.2l18.1 20M515.6 485.9l-26.7-29.7M515.6 485.9l26.5-5.6M652.7 612.3l-20-34.6M652.7 612.3h27M908.1 540.3l-4.2 39.8M908.1 540.3l-21.9-15.8M130.6 213.6l12.4-38.1M130.6 213.6l18.1 20M369.5 375.3l-26.8-29.7M369.5 375.3l26.4-5.6M423 434.8l12.3-38.1M423 434.8l18.1 20M772.684 750.904l-23.464-32.64 6.928-4zM569.173 545.338l8.556-39.278 7.609 2.472zM936.262 643.619l-30.01 26.747-4.702-6.472zM878.356 733.676l-39.957-4.404 1.663-7.825zM882.9 477.3l-8.8 26.3M876.9 476.7l3.2 27.5M879.9 477l-21.8-15.8M710.1 648.5l-8.3-26.4M715.3 645.5l-18.7-20.4M712.7 647h27M197.1 237.9l-27.6-.2M195.9 232.1l-25.2 11.4M196.5 235l8.3-25.7M1015.3 528.9l21.8 15.8M1011.8 533.7l21.8 15.9M1013.5 531.3l2.8-26.9M320.8 422.6l-8.3 25.7M315.1 420.7l-8.3 25.7M318 421.7l-18.1-20.1M372.1 484l-26.4 5.7M370.9 478.2l-26.4 5.6M371.5 481.1l18.1 20.1M128.6 107.8l39.1-8.3M128.6 107.8l-8.4 25.6M286.9 288.1l-13.6-24M291.4 284.1l-22.5-16M289.2 286.1l26.4-5.6M489.5 459.1l-27.7-.3M488.3 453.2l-25.2 11.5M488.9 456.2l8.3-25.7M343.3 348.5l-27.6-.2M342.1 342.6l-25.2 11.5M342.7 345.6l8.3-25.7M433.1 398.7l-13.6-24.1M437.6 394.7l-22.5-16M435.3 396.7l26.5-5.6M140.7 177.5l-13.6-24M145.2 173.5l-22.5-16M143 175.5l26.4-5.6M752.7 719.3l-27-6M752.7 713.3l-27 6M752.7 716.3l13.5-23.4M579.3 509.3l-13.6-24.1M583.8 505.3l-22.6-16.1M581.5 507.3l26.4-5.6M632.7 577.7h-27M630.1 576.2l13.5-23.4M635.3 579.2l13.5-23.4M903.9 580.1l21.8 15.9M905.1 582.8l-24.6 11M902.7 577.4 878 588.3M839.2 725.4l-18 20M836.4 726.3l-8.4-25.7M842.1 724.4l-8.4-25.6M903.9 667.1l2.8 26.9M902.7 669.9l-24.7-11M905.1 664.4l-24.6-11M164.8 98.5l8.4-25.7M170.5 100.4l8.4-25.7M167.7 99.5l18.1 20M786.1 814.2l-29.7-26.8M756.4 787.4l16.3-36.5M772.7 750.9l26.8 2.8M815.2 767.8l5.6 26.4M820.8 794.2l-34.7 20M531.1 597.7v-40M531.1 557.7l38.1-12.4M569.2 545.3l15.8 21.9M585 588.2l-15.8 21.9M569.2 610.1l-38.1-12.4M997.8 623.6 974.3 656M974.3 656l-38-12.4M936.3 643.6v-27M948.6 599.6l25.7-8.3M974.3 591.3l23.5 32.3M934.4 766l-39.8 4.2M894.6 770.2l-16.2-36.5M878.4 733.7l20-18.1M919.3 713.4l23.4 13.5M942.7 726.9l-8.3 39.1"/><text x="101.891" y="297.663" fill="#666" stroke-width="0" font-weight="bold" font-size="16">CH</text><text x="125.891" y="301.343" fill="#666" stroke-width="0" font-weight="bold" font-size="13">3</text><text x="14" y="276.254" fill="#666" stroke-width="0" font-weight="bold" font-size="16">H</text><text x="26" y="279.934" fill="#666" stroke-width="0" font-weight="bold" font-size="13">3</text><text x="32.5" y="276.254" fill="#666" stroke-width="0" font-weight="bold" font-size="16">C</text><text x="36.677" y="94.359" fill="#666" stroke-width="0" font-weight="bold" font-size="16">H</text><text x="48.677" y="98.039" fill="#666" stroke-width="0" font-weight="bold" font-size="13">3</text><text x="55.177" y="94.359" fill="#666" stroke-width="0" font-weight="bold" font-size="16">C</text><text x="110.164" y="48" fill="#666" stroke-width="0" font-weight="bold" font-size="16">CH</text><text x="134.164" y="51.68" fill="#666" stroke-width="0" font-weight="bold" font-size="13">3</text><text x="211.673" y="340.482" fill="#666" stroke-width="0" font-weight="bold" font-size="16">H</text><text x="223.673" y="344.162" fill="#666" stroke-width="0" font-weight="bold" font-size="13">3</text><text x="230.173" y="340.482" fill="#666" stroke-width="0" font-weight="bold" font-size="16">C</text><text x="477.282" y="531.929" fill="#666" stroke-width="0" font-weight="bold" font-size="16">H</text><text x="489.282" y="535.609" fill="#666" stroke-width="0" font-weight="bold" font-size="13">3</text><text x="495.782" y="531.929" fill="#666" stroke-width="0" font-weight="bold" font-size="16">C</text><text x="606.684" y="793.545" fill="#0C0CFF" stroke-width="0" font-weight="bold" font-size="16">H</text><text x="618.684" y="797.225" fill="#0C0CFF" stroke-width="0" font-weight="bold" font-size="13">2</text><text x="625.184" y="793.545" fill="#0C0CFF" stroke-width="0" font-weight="bold" font-size="16">N</text><text x="944.805" y="492.276" fill="#0C0CFF" stroke-width="0" font-weight="bold" font-size="16">NH</text><text x="968.805" y="495.956" fill="#0C0CFF" stroke-width="0" font-weight="bold" font-size="13">2</text><text x="256.395" y="264.397" fill="#0C0CFF" stroke-width="0" font-weight="bold" font-size="16">N</text><text x="706.684" y="724.263" fill="#0C0CFF" stroke-width="0" font-weight="bold" font-size="16">N</text><text x="297.565" y="361.891" fill="#0C0CFF" stroke-width="0" font-weight="bold" font-size="16">N</text><text x="548.768" y="485.57" fill="#0C0CFF" stroke-width="0" font-weight="bold" font-size="16">N</text><text x="869.721" y="524.815" fill="#0C0CFF" stroke-width="0" font-weight="bold" font-size="16">N</text><text x="686.684" y="620.34" fill="#0C0CFF" stroke-width="0" font-weight="bold" font-size="16">N</text><text x="151.378" y="251.304" fill="#0C0CFF" stroke-width="0" font-weight="bold" font-size="16">N</text><text x="443.751" y="472.478" fill="#0C0CFF" stroke-width="0" font-weight="bold" font-size="16">N</text><text x="402.582" y="374.984" fill="#0C0CFF" stroke-width="0" font-weight="bold" font-size="16">N</text><text x="110.208" y="153.81" fill="#0C0CFF" stroke-width="0" font-weight="bold" font-size="16">N</text><text x="586.684" y="585.699" fill="#0C0CFF" stroke-width="0" font-weight="bold" font-size="16">N</text><text x="806.465" y="763.085" fill="#0C0CFF" stroke-width="0" font-weight="bold" font-size="16">N</text><text x="930.262" y="611.619" fill="#0C0CFF" stroke-width="0" font-weight="bold" font-size="16">N</text><text x="902.082" y="714.911" fill="#0C0CFF" stroke-width="0" font-weight="bold" font-size="16">N</text><text x="829.542" y="461.523" fill="#FF0C0C" stroke-width="0" font-weight="bold" font-size="16">HO</text><text x="746.684" y="654.981" fill="#FF0C0C" stroke-width="0" font-weight="bold" font-size="16">OH</text><text x="202.864" y="204.945" fill="#FF0C0C" stroke-width="0" font-weight="bold" font-size="16">OH</text><text x="1039.887" y="562.81" fill="#FF0C0C" stroke-width="0" font-weight="bold" font-size="16">O</text><text x="1011.708" y="499.518" fill="#FF0C0C" stroke-width="0" font-weight="bold" font-size="16">OH</text><text x="299.608" y="467.701" fill="#FF0C0C" stroke-width="0" font-weight="bold" font-size="16">O</text><text x="273.204" y="399.933" fill="#FF0C0C" stroke-width="0" font-weight="bold" font-size="16">HO</text><text x="326.374" y="497.427" fill="#FF0C0C" stroke-width="0" font-weight="bold" font-size="16">O</text><text x="392.265" y="518.836" fill="#FF0C0C" stroke-width="0" font-weight="bold" font-size="16">OH</text><text x="322.286" y="285.806" fill="#FF0C0C" stroke-width="0" font-weight="bold" font-size="16">OH</text><text x="495.238" y="426.119" fill="#FF0C0C" stroke-width="0" font-weight="bold" font-size="16">OH</text><text x="349.051" y="315.532" fill="#FF0C0C" stroke-width="0" font-weight="bold" font-size="16">OH</text><text x="468.473" y="396.393" fill="#FF0C0C" stroke-width="0" font-weight="bold" font-size="16">OH</text><text x="176.099" y="175.22" fill="#FF0C0C" stroke-width="0" font-weight="bold" font-size="16">OH</text><text x="766.684" y="689.622" fill="#FF0C0C" stroke-width="0" font-weight="bold" font-size="16">OH</text><text x="614.659" y="506.98" fill="#FF0C0C" stroke-width="0" font-weight="bold" font-size="16">OH</text><text x="646.684" y="551.058" fill="#FF0C0C" stroke-width="0" font-weight="bold" font-size="16">O</text><text x="861.359" y="604.377" fill="#FF0C0C" stroke-width="0" font-weight="bold" font-size="16">O</text><text x="820.87" y="695.317" fill="#FF0C0C" stroke-width="0" font-weight="bold" font-size="16">O</text><text x="861.359" y="658.86" fill="#FF0C0C" stroke-width="0" font-weight="bold" font-size="16">O</text><text x="174.055" y="69.409" fill="#FF0C0C" stroke-width="0" font-weight="bold" font-size="16">O</text><text x="188.46" y="137.177" fill="#FF0C0C" stroke-width="0" font-weight="bold" font-size="16">OH</text></svg></svg>